# xmcd CD database file
#
# Track frame offsets:
#	150
#	14766
#	26749
#	41004
#	53776
#	70705
#	85499
#	101070
#	118047
#	129702
#
# Disc length: 1912 seconds
#
# Revision: 0
# Processed by: cddbd v1.5.1PL2 Copyright (c) Steve Scherf et al.
# Submitted via: CDex 1.51
#
DISCID=8d07760a
DTITLE=0382-Johnny Cash - Silver
DYEAR=1978
DGENRE=Country
TTITLE0=The L and N Don't Stop Here Anymore
TTITLE1=Lonesome To The Bone
TTITLE2=Bull Rider
TTITLE3=I'll Say It's True
TTITLE4=Ghost Riders In The Sky
TTITLE5=Cocaine Blues
TTITLE6=Muddy Waters
TTITLE7=West Canterbury Subdivision Blues
TTITLE8=Lately I Been Leanin' Toward The Blues
TTITLE9=I'm Gonna Sit On The Porch And Pick On My Old Guitar
EXTD=YEAR: 1978
EXTT0=
EXTT1=
EXTT2=
EXTT3=
EXTT4=
EXTT5=
EXTT6=
EXTT7=
EXTT8=
EXTT9=
PLAYORDER=
